
<svg xmlns="http://www.w3.org/2000/svg" version="1.1" xmlns:xlink="http://www.w3.org/1999/xlink" preserveAspectRatio="none" x="0px" y="0px" width="500px" height="315px" viewBox="0 0 500 315">
<defs>
<g id="Layer0_0_FILL">
<path fill="#f1f1f1" stroke="none" d="
M 500 21.05
L 489.8 0.35 351.6 0.35 333.7 38.65 348.15 56.6
Q 366.05 22.4 396.75 21.05
L 435.75 21.05 373.4 157.45
Q 366.85 170.25 358.35 179.85 353.65 185.05 348.35 189.25 332.15 202.3 310.2 205.6 308.05 205.85 305.9 206.1 305.05 206.15 304.2 206.3 299.25 206.75 294 206.75
L 251.85 120.45 218.25 193.65 229.85 217.3 252.2 168.55 323.75 314.6 447.05 44.95
Q 458.6 23 477.75 21.25 478.95 21.1 480.1 21.05
L 500 21.05
M 304.6 228.2
Q 307.15 228.05 309.75 227.75 329.8 225.65 346.15 217
L 323.4 266.6 304.6 228.2
M 0 21.05
L 19.85 21.05
Q 39.95 21.7 52.15 43.6
L 165 273.7 254.5 314.55 254.55 314.7 276.8 266.05 252.5 216.5 241.4 240.85 241.35 240.85 254.05 266.75 244.75 287.05 240 284.9 240 284.8 100.45 0.35 10.15 0.35 0 21.05 Z"/>
</g>
</defs>

<g transform="matrix( 1, 0, 0, 1, 0,0) ">
<use xlink:href="#Layer0_0_FILL"/>
</g>
</svg>
