
<svg xmlns="http://www.w3.org/2000/svg" version="1.1" xmlns:xlink="http://www.w3.org/1999/xlink" preserveAspectRatio="none" x="0px" y="0px" width="500px" height="354px" viewBox="0 0 500 354">
<defs>
<g id="Layer0_0_FILL">
<path fill="#FFFCF2" stroke="none" d="
M 98.35 121.55
L 96.35 120.85 96.35 263.4
Q 96.35 264.05 96.4 264.8 97 284.1 107.9 295.85
L 180.35 370.75
Q 183.8 374.3 188.05 376.25 191.5 377.8 195.6 378.35
L 195.65 378.35
Q 204.5 379.4 212.2 374.6 219.85 369.8 222.8 361.3
L 227.9 346.5 188.4 305.6 188.35 305.7 147.3 263.25 147.3 173.3
Q 146.85 163.3 142.8 154.9 132.45 133.1 98.35 121.55
M 395.1 121.45
Q 394.6 121.45 394.1 121.5 380.85 122.2 369.95 125.7 338.8 135.55 326.45 168.4
L 326.45 168.45 326.4 168.5
Q 326.35 168.7 326.25 168.9
L 326.2 169 326.2 169.1 279.4 305.3 163.85 185.75 163.85 259.15 257.85 356.35
Q 258.25 356.75 258.7 357.2
L 271.7 370.65
Q 275.15 374.2 279.4 376.15
L 279.4 376.1
Q 281.75 377.25 284.5 377.85 285.7 378.1 287 378.25 295.85 379.3 303.55 374.5 311.2 369.7 314.15 361.2
L 374.4 185.9
Q 379.6 172.8 395.3 172.45
L 406.4 172.45
Q 443.2 171.75 459.6 123.45
L 460.3 121.45 395.1 121.45
M 370.85 128.55
Q 381.45 125.15 394.35 124.5
L 394.45 124.5
Q 394.8 124.45 395.1 124.45
L 456.05 124.45
Q 454.9 127.7 453.65 130.7 437.85 168.6 406.35 169.45
L 395.25 169.45
Q 377.35 169.8 371.55 184.85
L 371.55 184.95 353.9 236.2 328.75 248.35 320 273.85 304.3 242 313.1 216.5 321.85 191 329 170.15
Q 329.2 169.75 329.3 169.3 341.15 138 370.85 128.55 Z"/>

<path fill="#CCC5B9" stroke="none" d="
M 313.1 216.5
L 304.3 242 320 273.85 328.75 248.35 313.1 216.5 Z"/>

<path fill="#403D39" stroke="none" d="
M 328.75 248.35
L 337.45 222.95 321.85 191 313.1 216.5 328.75 248.35 Z"/>

<path fill="#F4A261" stroke="none" d="
M 337.55 222.9
L 337.45 222.95 337.55 222.95 337.55 222.9 Z"/>

<path fill="#EB5E28" stroke="none" d="
M 351.55 181.95
Q 351.5 182.15 351.4 182.35
L 337.45 222.95 337.55 222.9 337.55 222.95 337.45 222.95 328.75 248.35 353.9 236.2 371.55 184.95 371.55 184.85
Q 377.35 169.8 395.25 169.45
L 406.35 169.45
Q 437.85 168.6 453.65 130.7 439.3 153.5 424.8 153.2
L 393.6 153.2
Q 393.35 153.2 393.05 153.25 384.85 153.65 378.15 155.8 359.1 161.85 351.55 181.95 Z"/>

<path fill="#252422" stroke="none" d="
M 394.35 124.5
Q 381.45 125.15 370.85 128.55 341.15 138 329.3 169.3 329.2 169.75 329 170.15
L 321.85 191 337.45 222.95 351.4 182.35
Q 351.5 182.15 351.55 181.95 359.1 161.85 378.15 155.8 384.85 153.65 393.05 153.25 393.35 153.2 393.6 153.2
L 424.8 153.2
Q 439.3 153.5 453.65 130.7 454.9 127.7 456.05 124.45
L 395.1 124.45
Q 394.8 124.45 394.45 124.5
L 394.35 124.5 Z"/>
</g>
</defs>

<g transform="matrix( 1.37353515625, 0, 0, 1.37353515625, -132.25,-165.9) ">
<use xlink:href="#Layer0_0_FILL"/>
</g>
</svg>
