
<svg xmlns="http://www.w3.org/2000/svg" version="1.1" xmlns:xlink="http://www.w3.org/1999/xlink" preserveAspectRatio="none" x="0px" y="0px" width="1200px" height="120px" viewBox="0 0 1200 120">
<defs>
<g id="Layer0_0_FILL">
<path fill="#CCC5B9" stroke="none" d="
M 359.25 31.45
L 471.9 31.45
Q 536.45 33.65 590.4 53.7 646.6 77.7 691.8 98.5 695.85 100.8 706.05 95.05 710.4 94.05 721.75 101 738.8 110.4 742 108.4 744.95 98.25 757.55 88.1 759.3 87.4 762.55 91.85 780 80.9 782.35 82.15 783.5 82.65 785.25 82.15 796.55 77 800.1 78.35
L 822 89.9
Q 830.65 83.95 838.65 77.5 840.1 76.3 841.55 75.1 850.2 67.95 858.15 60.15 859.1 59.35 860.85 60.15 865.2 61.55 868.3 61.7 881.1 57.85 890.05 55.35 905.85 51 909.85 50.85 940.1 47.75 998.15 56.15 1005.05 60.2 1008.25 66.1 1012.5 73.4 1016.7 76.35 1018.3 76.95 1019.55 75.45 1020.75 74.9 1024.9 84.5 1025.15 85.05 1027.35 86.2
L 1028.6 91.15
Q 1028.2 93.1 1032.2 94.35 1035.45 95.15 1040.7 74.55 1044.95 56.85 1062.65 46.1 1091 34.6 1126.7 34.05 1142.55 44.65 1144.85 43.85
L 1156.95 39.25
Q 1168.95 40.3 1178.2 44.45 1179.2 44.7 1183.15 41.2 1186.75 40.35 1187.7 38.8 1191.95 32.45 1200 31.45
L 1200 0 0 0 0 31.45 6.2 31.45
Q 43.65 33.5 85.1 66.7 110.6 87.15 114 85.6 116.05 84.65 118.7 83.2 125.8 76.9 133.35 72.6 135.5 75.3 162.55 58.4 186.05 43.7 232.35 34.2 257.45 37.9 285.15 49.4 292.8 51.7 307.9 43.45 331.7 32.6 359.25 31.45 Z"/>
</g>
</defs>

<g transform="matrix( 1, 0, 0, 1, 0,0) ">
<use xlink:href="#Layer0_0_FILL"/>
</g>
</svg>
