
<svg xmlns="http://www.w3.org/2000/svg" version="1.1" xmlns:xlink="http://www.w3.org/1999/xlink" preserveAspectRatio="none" x="0px" y="0px" width="60px" height="60px" viewBox="0 0 60 60">
<defs>
<g id="trees_0_Layer0_0_FILL">
<path fill="#252422" stroke="none" d="
M 417.75 372.5
Q 403.987109375 343.157421875 389.25 308.4 400.15 304.85 410.65 299.9 358.5 161.05 337.7 0 312.8767578125 136.9705078125 277.1 257.4 270.44609375 279.8732421875 263.4 301.75 269.027734375 302.6314453125 278.15 305.05 282.5146484375 306.23671875 287.65 307.75 284.3638671875 315.3822265625 281.15 322.65 251.730859375 389.58671875 230.15 425 222.04453125 438.33359375 215.05 447.2 220.0109375 448.9984375 224.7 450.6 238.9443359375 455.504296875 250.75 458.7
L 236.6 485.35 436.3 485.35 423.9 461.3
Q 426.391796875 460.640234375 428.9 459.9 442.6515625 455.8544921875 457.35 449.35 444.5111328125 427.2134765625 430.6 399.2 424.3017578125 386.487109375 417.75 372.5
M 9.45 357.6
Q 20.7 361.95 26.55 363.9
L 0 413.55 0 485.35 217.5 485.35 147.5 366.9
Q 158.05 365.55 166.9 359.25
L 125.1 219.6 87.45 93.65
Q 52.020703125 220.7017578125 17.4 332.15 13.4177734375 344.99609375 9.45 357.6
M 499.95 485.35
L 499.95 413.65 461.6 485.35 499.95 485.35 Z"/>

<path fill="#403D39" stroke="none" d="
M 499.95 154.45
Q 491.65 107.15 487.5 50.75 487.9 116.35 463.9 198.55
L 473.55 203.4 442.05 304.75
Q 446.1 307.45 450.45 308 454.85 308.55 457.15 311.15 452.995703125 332.0474609375 439.75 372.2 435.64609375 384.7736328125 430.6 399.2 444.5111328125 427.2134765625 457.35 449.35 442.6515625 455.8544921875 428.9 459.9 426.391796875 460.640234375 423.9 461.3
L 436.3 485.35 461.6 485.35 499.95 413.65 499.95 208 499.2 205.1 499.95 204.6 499.95 154.45
M 167.35 176.75
L 181 168.35
Q 162.75 95.55 155.3 0 155.8 74.85 127.05 168.65
L 139.95 176.7 125.1 219.6 166.9 359.25
Q 158.05 365.55 147.5 366.9
L 217.5 485.35 236.6 485.35 250.75 458.7
Q 238.9443359375 455.504296875 224.7 450.6 220.762890625 463.1283203125 215.9 478.1
L 205.2 437.75 227 429.75
Q 226.05 426.95 225.15 424.2 225.65 424.25 226.2 424.3 228.566796875 424.4376953125 230.15 425 251.730859375 389.58671875 281.15 322.65
L 275.65 306.65 278.15 305.05
Q 269.027734375 302.6314453125 263.4 301.75 270.44609375 279.8732421875 277.1 257.4 259.9123046875 187.990234375 260.3 129.95 252.85 225.5 234.6 298.3
L 248.25 306.7 219.2 406.65
Q 208.8154296875 375.8763671875 200.8 351.4 189.8720703125 317.962109375 183.4 296.35 185.1 294.6 189.4 294.35 193.75 294.1 200.5 290.75
L 167.35 176.75
M 17.4 332.15
Q 13.721484375 319.9697265625 11 310.4 12.4 308.9 16 308.65 19.65 308.45 25.25 305.5
L 0 208 0 413.55 26.55 363.9
Q 20.7 361.95 9.45 357.6 13.4177734375 344.99609375 17.4 332.15
M 0 204.6
L 9 198.25
Q 4 177.4 0 154.45
L 0 204.6 Z"/>
</g>
</defs>

<g transform="matrix( -0.1199951171875, 0, 0, -0.11541748046875, 60,56) ">
<g transform="matrix( 1, 0, 0, 1, 0,0) ">
<use xlink:href="#trees_0_Layer0_0_FILL"/>
</g>
</g>
</svg>
