
<svg xmlns="http://www.w3.org/2000/svg" version="1.1" xmlns:xlink="http://www.w3.org/1999/xlink" preserveAspectRatio="none" x="0px" y="0px" width="60px" height="60px" viewBox="0 0 60 60">
<defs>
<g id="Layer0_0_FILL">
<path fill="#EB5E28" stroke="none" d="
M 44.45 8.05
Q 44 7.65 43.7 7.55
L 43.3 7.4 42.95 7.4
Q 42.9 7.35 43.15 7.35
L 41 6 39.45 5.25 39.15 5.3 38.85 5.25 37.35 4.7
Q 36.95 4.7 36.75 4.85
L 37.1 4.8
Q 37.45 5 36.8 5.1
L 36.6 5.15
Q 36.3 5.05 36 5 36 4.95 36 4.8 36 4.65 35.75 4.35
L 36.3 4.65 36.25 4.2
Q 35.75 4.3 35.55 4.35
L 35.2 4.35 34.3 4.2 34 4.1 33.75 4.05 32.75 3.7
Q 32.25 3.6 31.8 3.85
L 31.9 3.75
Q 31.75 3.65 31.4 3.65
L 30.95 3.75 30.1 4.1
Q 30.1 3.85 30.75 3.65
L 30.25 3.6 29 3.65 28.35 3.75
Q 26.25 4.05 25.8 4 25.55 4.15 25.7 4.3 25.85 4.5 25.6 4.6 25.2 4.6 25.1 4.5 24.9 4.35 25.3 4.2
L 24.75 4.15 24.1 4.25 19.85 5.7 19.5 5.75
Q 19.3 5.95 18.95 6.45 18.5 6.9 18.05 7.15 18.15 7.05 17.9 6.75 17.75 6.55 18.2 6.3
L 18.2 6.05 17.45 6.45 17.4 6.45 15.55 7.65 15.35 7.85 15.15 8
Q 14.75 8.45 14.7 8.8 14.55 8.6 14.35 8.7
L 13.8 9.05
Q 13.7 9.15 13.8 9.1 13.9 9.05 14 9.05 13.85 9.45 13.55 9.55
L 13.35 9.6 13.25 9.65 13.05 9.9 13.1 9.75 12.45 10.55 12.45 10.6 12.4 10.7
Q 11.95 10.85 11.85 10.8
L 12.1 11
Q 11.9 11.2 11.65 11.2
L 11.45 11.2 11.4 11.25 11.35 11.25 11.35 11.3 11.3 11.3 11.15 11.45 11.4 11.5 10.85 12.15
Q 10.65 12.45 10.4 12.35
L 10.4 12.3 10.5 12.2
Q 10.2 12.3 10 12.5
L 9.35 13.4 9.2 13.75 8.65 14.3 9.25 14.4 9 14.8 8.9 14.85 8.75 14.65 8.3 15.15 8 15.35 7.65 15.75
Q 7.65 15.8 7.8 16.2
L 7.3 16.8 7.3 16.55 7.35 16.2 6.85 17.75 6.55 18.2 6.1 19.1
Q 6 19.7 6.05 19.95 5.9 20.25 5.9 19.85 5.9 19.55 5.75 19.65
L 5.6 19.9 5.25 20.65 4.7 23.45 4.6 23.7 4.55 23.9 4.15 24.95 4 25.75 4 26 3.95 26.05 3.95 26.15 3.8 27 3.8 27.35 3.65 29.4 3.65 29.75 3.6 30 3.6 30.2 3.75 30.15 3.65 31.75
Q 3.85 32.05 4 32.7 4.25 33.65 4.35 33.8 4.1 33.9 4.05 33.75
L 4.25 34.7
Q 4.35 35.3 4.3 35.45
L 4.15 35.3 4.65 37.65 4.7 37.75 5.05 38.65
Q 5.45 39.25 5.5 39.3 5.6 39.65 5.5 39.85 5.5 39.95 5.3 40.05
L 6.5 41.85
Q 6.6 42.3 6.55 42.45
L 7 42.6
Q 7.1 42.8 7 42.85 6.9 42.95 6.9 43.05
L 7.35 43.55 7.4 43.7 7.55 43.85 9.05 46.2 9.1 45.95
Q 9.4 46.15 9.5 46.55 9.6 46.85 9.35 46.7
L 9.4 46.8 9.5 46.95 10.35 47.85 11.25 48.5 11.35 48.55 11.35 48.6 11.4 48.6 11.45 48.65 11.5 48.65 12.45 49.35 12.6 49.5 13.25 50.05 13.3 50.3 13.35 50.45 13.45 50.55 14.75 51.5
Q 15.05 51.75 15 52.05
L 16.65 53 17.2 53.1 17.2 53.2 17.5 53.5
Q 17.85 53.75 18.15 53.8
L 18.5 53.95 18.7 54 19.75 54.35 19.75 54.5
Q 19.9 54.4 20.3 54.5
L 21.05 54.6 21.1 54.7 21.25 54.7 21.45 54.75 21.85 54.75
Q 22.05 54.8 22.3 54.75
L 22.35 54.75
Q 22.25 54.8 21.95 54.85 22.2 55.05 22.3 55.05
L 22.7 55.1
Q 23.15 55 23.6 55.2 23.7 55.45 23.55 55.45
L 24.35 55.8 25.35 56 30.15 56.2 30.45 56.15 32.2 56.15
Q 32.55 56.15 32.45 55.9 32.4 55.85 32.45 55.8 32.7 55.75 32.95 55.75 33.15 55.8 32.85 55.95 32.75 56.2 33.15 56.2
L 33.7 55.9 34.45 55.8
Q 34.4 55.9 34.35 56 34.3 56.15 34 56.25 34.15 56.25 35.1 56
L 35.75 55.8
Q 36.2 55.75 36.4 55.8 36.35 55.7 36.65 55.45 37 55.25 37.5 55.1
L 39 54.9
Q 39.35 54.9 39.35 54.8 39.57109375 54.6158203125 39.45 54.65 40.3470703125 54.27109375 40.3 54.6 40.65 54.1 40.85 54
L 40.8 54.3 41.25 53.85 40.9 53.8 41.1 53.8 41.75 53.4
Q 42.2 53.05 42.25 53.35
L 42.1 53.45 42.35 53.4 42.45 53.35 42.55 53.35 43 53.15 43.4 52.65 44 52.2
Q 44.2 52.3 44.4 52.2
L 44.9 51.9 45.95 51 46.05 51.15 46.4 50.65 46.7 50.45 47.55 49.6 47.65 49.55 47.7 49.45 48.05 49.2
Q 48.420703125 49.0609375 48.3 49.15
L 48.95 48.5
Q 49.25 47.9 49.25 47.75
L 50.2 47.3
Q 50.2 47.05 50.4 46.75
L 50.85 46.25
Q 51.4 45.7 51.15 45.45 51.55 45.15 51.9 45.05
L 52 44.8 52 44.65 52.05 44.5 52.95 43 53.05 43 53.35 42.5 54 40.45 54.55 40.4 54.65 40.2 54.65 40.05 54.55 39.7
Q 54.55 39.3 54.7 39.1 54.8 39.05 54.8 39.25
L 54.85 39.05 55.25 38.05 55.35 37.85 55.45 37.75
Q 55.4 37.1 55.45 36.6
L 55.45 36.05 55.35 35.45
Q 55.65 35.25 55.65 35.7 55.65 36.25 55.9 36.05
L 56 35.6 56.15 35.35 56.15 35.15 56.25 34.25 56.3 34 56.2 32.35 56.45 32.45 55.9 31.15 55.85 31.1
Q 55.85 30.6 55.85 30.1
L 55.85 30.05 56 29.9 55.85 29.45
Q 55.85 29.1 55.85 28.8 55.95 28.65 55.95 28.45
L 55.95 28
Q 55.95 27.7 55.75 27.05 55.7 26.85 55.7 26.75 55.6 26.15 55.5 25.6 55.5 25.4 55.6 25.25
L 55.65 25.3 55.35 24.4 55.3 23.95 55.25 23.75 55.25 23.5 54.75 21.7 54.5 21.4 54.4 21.3 54.35 21.1 54.25 21
Q 54.05 20.5 53.9 20.05
L 54.05 20.25 54.25 20.45 54.15 20.15 53.8 19.8
Q 53.7 19.6 53.6 19.45
L 53.6 19.4
Q 53.75 19.35 53.7 19.2
L 53.35 18.9
Q 53.3 18.75 53.3 18.7
L 53.4 18.5 52.75 17.7
Q 52.9 17.65 52.75 17.25 52.55 16.95 52.85 17.05
L 52.35 16.25
Q 52.05 15.95 51.65 15.7 51.6 15.4 51.95 15.65 52.3 16.15 52.05 15.7
L 51.9 15.55 51.4 14.85 49.4 12.65 49.3 12.5 49.2 12.45 46.55 9.75 46.1 9.4 46.4 9.45 45.45 9.25 45.15 8.65 44.65 8.2 44.45 8.05
M 44.65 8.65
L 44.85 8.95
Q 44.7 8.85 44.6 8.7
L 44.65 8.65
M 52.25 16.75
L 52.35 16.95 52.6 17.15
Q 52.65 17.4 52.55 17.4 52.35 17.05 52.15 16.7
L 52.25 16.75 Z"/>
</g>
</defs>

<g transform="matrix( 1, 0, 0, 1, 0,0) ">
<use xlink:href="#Layer0_0_FILL"/>
</g>
</svg>
